#!OML:ASF H:\Terrain\Patient Classification 1\Animal1\Tuesday\Animal1.ASF
:FULLY-SPECIFIED
:DEGREES
801
root 15.4618 16.462 -12.6089 4.70134 -7.47407 2.70618
lowerback 2.4551 -3.01188 2.58046
upperback -7.41868 -3.81469 0.994993
thorax -9.30714 -2.02142 0.019173
lowerneck 1.29519 -7.36344 -9.65779
upperneck 12.2542 -10.3204 4.8798
head 4.21882 -5.35061 2.65043
rclavicle 4.64162e-014 -3.18055e-015
rhumerus 4.69603 -9.64193 -19.0285
rradius 31.2407
rwrist 1.25349
rhand -6.9392 23.5817
rfingers 7.12502
rthumb 18.9293 -5.51726
lclavicle 4.64162e-014 -3.18055e-015
lhumerus -7.35815 7.19868 34.2612
lradius 38.2438
lwrist -24.2907
lhand 7.56444 50.6479
lfingers 7.12502
lthumb 32.8128 77.6874
rfemur -13.8134 36.3244 24.5273
rtibia 18.1366
rfoot -40.7865 -39.1062
rtoes 38.6246
lfemur -28.5857 3.95614 -16.8919
ltibia 54.7608
lfoot -2.01144 2.28313
ltoes 12.1718
802
root 15.462 16.4606 -12.6016 4.5531 -7.53815 2.85947
lowerback 2.40758 -3.01911 2.35986
upperback -7.38665 -3.84134 1.00368
thorax -9.22662 -2.01793 0.14858
lowerneck 1.23564 -7.46689 -9.58542
upperneck 12.2299 -10.4259 4.61645
head 4.21273 -5.40914 2.55101
rclavicle 4.69132e-014 4.77083e-015
rhumerus 4.00598 -9.63938 -19.633
rradius 32.0952
rwrist 1.49855
rhand -7.04981 23.1276
rfingers 7.12502
rthumb 18.8229 -5.9817
lclavicle 4.69132e-014 4.77083e-015
lhumerus -8.07191 6.72741 34.5871
lradius 39.1702
lwrist -23.7952
lhand 7.4304 49.4782
lfingers 7.12502
lthumb 32.6853 76.5443
rfemur -13.5721 36.2212 24.4933
rtibia 18.0913
rfoot -40.6299 -39.1312
rtoes 38.3705
lfemur -28.301 4.56208 -17.4382
ltibia 55.1061
lfoot -2.26137 1.54312
ltoes 11.1243
803
root 15.4652 16.458 -12.5959 4.51913 -7.59266 2.79062
lowerback 2.31063 -3.03699 2.42936
upperback -7.4005 -3.86037 1.04273
thorax -9.1873 -2.03103 0.148085
lowerneck 1.27069 -7.53609 -9.51054
upperneck 12.2299 -10.5025 4.41318
head 4.19871 -5.45293 2.47499
rclavicle 2.127e-014 1.59028e-015
rhumerus 3.19754 -9.37106 -20.2314
rradius 33.0866
rwrist 1.21627
rhand -7.51692 22.2996
rfingers 7.12502
rthumb 18.3736 -6.85261
lclavicle 2.127e-014 1.59028e-015
lhumerus -8.77742 6.48858 34.8929
lradius 39.9931
lwrist -23.8039
lhand 7.53901 48.4911
lfingers 7.12502
lthumb 32.7886 75.5357
rfemur -13.498 36.1392 24.6097
rtibia 18.1119
rfoot -40.4349 -39.259
rtoes 37.8722
lfemur -28.1331 5.19831 -17.7286
ltibia 55.4772
lfoot -2.52656 0.786092
ltoes 12.1063
804
root 15.4691 16.4551 -12.5923 4.5906 -7.5492 2.54464
lowerback 2.12091 -3.08525 2.72941
upperback -7.44085 -3.90429 1.12286
thorax -9.13795 -2.07158 0.0617641
lowerneck 1.30464 -7.57039 -9.63125
upperneck 12.3543 -10.5514 4.38048
head 4.24 -5.48608 2.4798
rclavicle -6.10269e-014 -2.06736e-014
rhumerus 2.30461 -9.05901 -20.8343
rradius 34.0843
rwrist 1.0144
rhand -8.74572 21.888
rfingers 7.12502
rthumb 17.1912 -7.37157
lclavicle -6.10269e-014 -2.06736e-014
lhumerus -9.51452 6.0747 35.2259
lradius 40.8116
lwrist -23.7103
lhand 8.26647 48.7629
lfingers 7.12502
lthumb 33.4804 75.6605
rfemur -13.6645 35.9396 24.8603
rtibia 18.3831
rfoot -40.4589 -39.1724
rtoes 37.0532
lfemur -28.1061 5.82454 -17.8103
ltibia 55.8289
lfoot -2.42509 0.139474
ltoes 15.6683
805
root 15.4696 16.4506 -12.5886 4.55317 -7.48283 2.58662
lowerback 1.97946 -3.12785 2.68582
upperback -7.47232 -3.96856 1.13061
thorax -9.08661 -2.10031 0.0931967
lowerneck 1.4454 -7.60576 -9.76229
upperneck 12.4679 -10.6134 4.36186
head 4.2628 -5.52734 2.49449
rclavicle -6.95746e-015 3.97569e-015
rhumerus 1.21146 -8.32216 -21.2701
rradius 35.1759
rwrist 0.589814
rhand -9.37173 22.8221
rfingers 7.12502
rthumb 16.5886 -6.48895
lclavicle -6.95746e-015 3.97569e-015
lhumerus -10.3642 5.37116 35.5923
lradius 41.8421
lwrist -23.433
lhand 8.90067 49.2623
lfingers 7.12502
lthumb 34.0829 76.0277
rfemur -13.8103 35.9046 24.861
rtibia 18.8144
rfoot -40.7456 -39.0396
rtoes 37.0809
lfemur -27.9522 6.39278 -18.2019
ltibia 56.0948
lfoot -2.02251 -0.188434
ltoes 17.5667
806
root 15.4676 16.4451 -12.5847 4.45641 -7.45952 3.08546
lowerback 1.80955 -3.13235 2.15672
upperback -7.48366 -4.0257 0.985449
thorax -8.96889 -2.09747 0.227542
lowerneck 1.60388 -7.67282 -9.73526
upperneck 12.5289 -10.7139 4.27788
head 4.25723 -5.58289 2.465
rclavicle -6.6891e-014 7.95139e-016
rhumerus 0.0703991 -7.42873 -21.6823
rradius 36.2493
rwrist -0.0449463
rhand -9.64933 23.1237
rfingers 7.12502
rthumb 16.3213 -6.20948
lclavicle -6.6891e-014 7.95139e-016
lhumerus -10.9576 4.8292 35.9811
lradius 42.6535
lwrist -23.6287
lhand 9.18678 48.8616
lfingers 7.12502
lthumb 34.3546 75.5659
rfemur -13.9768 36.2084 24.3475
rtibia 19.277
rfoot -41.6384 -38.7962
rtoes 38.3638
lfemur -27.7052 6.94268 -19.1184
ltibia 56.2781
lfoot -1.78469 -0.500516
ltoes 17.0561
807
root 15.4674 16.4442 -12.577 4.3679 -7.44689 3.58472
lowerback 1.59121 -3.13526 1.67872
upperback -7.47152 -4.07583 0.844738
thorax -8.80057 -2.09518 0.333574
lowerneck 1.73527 -7.76179 -9.74757
upperneck 12.4391 -10.8325 4.17518
head 4.21264 -5.64715 2.43633
rclavicle 9.0447e-015 1.03368e-014
rhumerus -0.915335 -6.82582 -22.2071
rradius 37.1541
rwrist -0.522804
rhand -10.5703 22.7749
rfingers 7.12502
rthumb 15.4344 -6.62887
lclavicle 9.0447e-015 1.03368e-014
lhumerus -11.4385 4.32363 36.3518
lradius 43.1707
lwrist -23.7186
lhand 8.99105 47.0051
lfingers 7.12502
lthumb 34.1688 73.7513
rfemur -14.1302 36.2877 23.8464
rtibia 19.7475
rfoot -43.5096 -37.7278
rtoes 39.9979
lfemur -27.4731 7.47905 -20.03
ltibia 56.4587
lfoot -1.79169 -1.0847
ltoes 15.006
808
root 15.4677 16.4449 -12.5791 4.37511 -7.45837 3.64144
lowerback 1.52649 -3.15278 1.57832
upperback -7.52464 -4.1038 0.886533
thorax -8.81011 -2.10068 0.433743
lowerneck 1.84907 -7.84405 -9.91024
upperneck 12.3986 -10.9454 4.11852
head 4.19669 -5.71364 2.44293
rclavicle -1.59028e-014 6.36111e-015
rhumerus -1.8121 -6.2124 -22.6911
rradius 37.9343
rwrist -0.913216
rhand -11.1003 23.0958
rfingers 7.12502
rthumb 14.9239 -6.34654
lclavicle -1.59028e-014 6.36111e-015
lhumerus -12.2168 3.62103 36.7119
lradius 43.9162
lwrist -23.2178
lhand 8.29319 45.0167
lfingers 7.12502
lthumb 33.5057 71.9088
rfemur -14.3663 36.0606 23.7801
rtibia 20.1567
rfoot -45.2472 -36.1036
rtoes 42.0329
lfemur -27.4666 8.06588 -20.4253
ltibia 56.766
lfoot -1.87455 -1.61305
ltoes 10.9114
809
root 15.4678 16.4422 -12.5945 4.44606 -7.50463 3.3943
lowerback 1.65467 -3.15891 1.69494
upperback -7.61639 -4.08996 1.04629
thorax -8.98366 -2.09503 0.548623
lowerneck 1.78722 -7.94773 -9.97293
upperneck 12.5907 -11.06 3.88978
head 4.26621 -5.78431 2.36991
rclavicle 6.7388e-014 -7.95139e-015
rhumerus -2.63691 -5.58533 -23.1355
rradius 38.6055
rwrist -1.28002
rhand -10.8877 23.5612
rfingers 7.12502
rthumb 15.1286 -5.86585
lclavicle 6.7388e-014 -7.95139e-015
lhumerus -13.0704 2.92652 37.108
lradius 44.8423
lwrist -22.6647
lhand 8.04428 44.2921
lfingers 7.12502
lthumb 33.2691 71.2351
rfemur -14.6691 36.0359 23.9583
rtibia 20.4293
rfoot -45.3494 -35.7193
rtoes 42.5317
lfemur -27.6263 8.67208 -20.4607
ltibia 57.1916
lfoot -1.91623 -1.95037
ltoes 9.82076
810
root 15.4698 16.4242 -12.6054 4.47744 -7.49005 2.95414
lowerback 1.75578 -3.15595 2.05429
upperback -7.65349 -4.04671 1.22047
thorax -9.09895 -2.09169 0.53796
lowerneck 1.69275 -8.06973 -9.87483
upperneck 12.8061 -11.1803 3.50209
head 4.33067 -5.85751 2.22229
rclavicle -9.62118e-014 1.59028e-015
rhumerus -3.53334 -5.18714 -23.6192
rradius 39.274
rwrist -1.6496
rhand -10.5983 23.6591
rfingers 7.12502
rthumb 15.4074 -5.74677
lclavicle -9.62118e-014 1.59028e-015
lhumerus -13.785 2.51753 37.5937
lradius 45.678
lwrist -22.6401
lhand 8.63055 44.7547
lfingers 7.12502
lthumb 33.8263 71.5768
rfemur -14.7711 36.1356 24.4162
rtibia 20.5423
rfoot -44.4848 -36.5007
rtoes 40.9611
lfemur -27.7287 9.21833 -20.2767
ltibia 57.6832
lfoot -1.81924 -2.44023
ltoes 12.2451
811
root 15.4731 16.4033 -12.6075 4.46682 -7.36905 2.76789
lowerback 1.65891 -3.2076 2.20696
upperback -7.6606 -4.10132 1.3198
thorax -9.05483 -2.12558 0.557722
lowerneck 1.81159 -8.11712 -9.96115
upperneck 12.8565 -11.2391 3.34666
head 4.3281 -5.89973 2.18914
rclavicle -8.74653e-015 -3.10104e-014
rhumerus -4.44928 -4.60741 -24.1177
rradius 40.0114
rwrist -2.12408
rhand -10.3204 23.3358
rfingers 7.12502
rthumb 15.6751 -6.04927
lclavicle -8.74653e-015 -3.10104e-014
lhumerus -14.6247 2.40108 38.0888
lradius 46.5117
lwrist -22.8195
lhand 9.55245 45.4132
lfingers 7.12502
lthumb 34.7017 72.0384
rfemur -14.7641 36.1791 24.6492
rtibia 20.6164
rfoot -43.8113 -37.3042
rtoes 39.8068
lfemur -27.7132 9.6104 -20.3822
ltibia 58.1547
lfoot -1.75993 -3.12894
ltoes 17.0035
812
root 15.4759 16.4019 -12.6073 4.41549 -7.2291 2.76332
lowerback 1.53604 -3.27738 2.17851
upperback -7.63457 -4.19707 1.36857
thorax -8.94871 -2.16879 0.624333
lowerneck 1.83599 -8.15864 -10.0054
upperneck 12.8489 -11.2806 3.20452
head 4.32001 -5.92848 2.15155
rclavicle -4.25399e-014 7.15625e-015
rhumerus -5.2921 -3.88445 -24.6457
rradius 40.5985
rwrist -2.41284
rhand -10.0367 23.0694
rfingers 7.12502
rthumb 15.9483 -6.29401
lclavicle -4.25399e-014 7.15625e-015
lhumerus -15.4322 2.22072 38.5727
lradius 47.1855
lwrist -22.504
lhand 9.67219 45.0019
lfingers 7.12502
lthumb 34.8154 71.6008
rfemur -14.7577 36.1653 24.6863
rtibia 20.7607
rfoot -42.771 -38.4112
rtoes 34.0861
lfemur -27.5774 9.92983 -20.6577
ltibia 58.5854
lfoot -1.82432 -3.74835
ltoes 19.7877
813
root 15.478 16.3977 -12.6074 4.36215 -7.12716 2.56168
lowerback 1.52127 -3.31398 2.33521
upperback -7.6229 -4.23063 1.45211
thorax -8.93394 -2.19275 0.627529
lowerneck 1.79026 -8.2312 -9.81436
upperneck 12.8728 -11.3436 2.90056
head 4.31148 -5.96368 2.02522
rclavicle -6.1822e-014 1.35174e-014
rhumerus -6.13317 -3.60793 -25.2684
rradius 40.9722
rwrist -2.05954
rhand -9.80705 23.1535
rfingers 7.12502
rthumb 16.1694 -6.19211
lclavicle -6.1822e-014 1.35174e-014
lhumerus -16.1356 2.06383 39.1345
lradius 47.7439
lwrist -22.1724
lhand 9.42453 44.7206
lfingers 7.12502
lthumb 34.5803 71.3737
rfemur -14.6925 35.9576 24.9778
rtibia 20.8691
rfoot -42.2184 -38.689
rtoes 31.4393
lfemur -27.5239 10.3545 -20.7392
ltibia 59.0035
lfoot -1.86375 -4.09254
ltoes 13.6737
814
root 15.4813 16.3819 -12.6074 4.47632 -7.03234 2.36097
lowerback 1.35744 -3.35637 2.49454
upperback -7.69155 -4.27474 1.55617
thorax -8.91858 -2.22246 0.645769
lowerneck 1.96988 -8.25437 -9.74688
upperneck 12.79 -11.3758 2.74918
head 4.24677 -5.98411 1.97811
rclavicle 8.01102e-014 7.15625e-015
rhumerus -7.00206 -3.44151 -25.9257
rradius 41.3825
rwrist -1.53309
rhand -9.62286 23.206
rfingers 7.12502
rthumb 16.3468 -6.12513
lclavicle 8.01102e-014 7.15625e-015
lhumerus -16.9299 2.05581 39.694
lradius 48.3804
lwrist -22.1508
lhand 10.0309 45.3716
lfingers 7.12502
lthumb 35.1557 71.8912
rfemur -14.7499 35.6868 25.1732
rtibia 20.8277
rfoot -43.0379 -37.6748
rtoes 33.2472
lfemur -27.6716 10.8034 -20.8654
ltibia 59.3843
lfoot -1.64041 -4.58279
ltoes 3.22253
815
root 15.4831 16.3716 -12.611 4.63946 -6.95101 2.09935
lowerback 1.16037 -3.37476 2.71257
upperback -7.75329 -4.28521 1.65661
thorax -8.88086 -2.24011 0.622031
lowerneck 2.05596 -8.29393 -9.69689
upperneck 12.8022 -11.4233 2.60381
head 4.2288 -6.01285 1.92817
rclavicle -4.83047e-014 -4.77083e-015
rhumerus -7.96918 -3.08757 -26.5352
rradius 41.8302
rwrist -1.38397
rhand -9.52594 23.0215
rfingers 7.12502
rthumb 16.4401 -6.30186
lclavicle -4.83047e-014 -4.77083e-015
lhumerus -17.5493 1.89867 40.2196
lradius 48.8729
lwrist -22.0252
lhand 10.5232 45.5389
lfingers 7.12502
lthumb 35.6224 71.9473
rfemur -14.8821 35.3255 25.3902
rtibia 20.7422
rfoot -43.0376 -37.2812
rtoes 41.8864
lfemur -27.7394 11.2385 -20.8478
ltibia 59.7446
lfoot -1.58897 -5.40043
ltoes -5.10305
